<?xml version="1.0" encoding="UTF-8" standalone="no"?>
<!DOCTYPE svg PUBLIC "-//W3C//DTD SVG 1.1//EN" "http://www.w3.org/Graphics/SVG/1.1/DTD/svg11.dtd">
<svg width="100%" height="100%" viewBox="0 0 1271 517" version="1.1" xmlns="http://www.w3.org/2000/svg" xmlns:xlink="http://www.w3.org/1999/xlink" xml:space="preserve" xmlns:serif="http://www.serif.com/" style="fill-rule:evenodd;clip-rule:evenodd;stroke-linejoin:round;stroke-miterlimit:2;">
    <g transform="matrix(1,0,0,1,-1066.54,-810.192)">
        <g>
            <rect x="1066.54" y="810.192" width="421.159" height="516.138" style="fill:rgb(35,32,32);"/>
            <g transform="matrix(1,0,0,1,-555.555,133.2)">
                <path d="M2106.26,872.13C2111.05,866.13 2117.05,860.73 2123.66,855.93C2135.05,846.93 2151.26,839.13 2172.26,839.13C2202.86,839.13 2220.26,857.13 2223.26,878.13L2130.26,894.93C2075.66,904.53 2043.26,941.13 2043.26,989.13C2043.26,1037.13 2079.26,1073.13 2139.26,1073.13C2172.86,1073.13 2195.66,1061.13 2210.66,1049.13C2219.66,1041.93 2226.86,1034.13 2232.26,1025.13C2235.26,1034.13 2240.05,1041.93 2246.66,1049.13C2258.05,1061.13 2275.45,1073.13 2304.26,1073.13C2313.26,1073.13 2321.05,1071.93 2327.66,1070.13C2331.26,1069.53 2334.26,1068.33 2337.26,1067.13L2337.26,992.13L2333.66,993.93C2330.66,994.53 2327.66,995.13 2325.26,995.13C2313.26,995.13 2304.26,986.13 2304.26,974.13L2304.26,884.13C2304.26,818.73 2253.26,767.13 2178.26,767.13C2139.26,767.13 2109.86,781.53 2088.86,795.93C2076.86,804.33 2066.66,813.93 2058.26,824.13L2106.26,872.13ZM2223.26,941.13C2223.26,980.13 2196.86,1007.13 2163.26,1007.13C2136.26,1007.13 2124.26,995.73 2124.26,977.13C2124.26,962.13 2136.26,951.33 2157.26,947.13L2223.26,935.13L2223.26,941.13Z" style="fill:rgb(35,32,32);"/>
                <path d="M2604.26,1133.13C2612.66,1144.53 2623.45,1154.13 2636.05,1163.13C2657.66,1178.13 2689.45,1193.13 2733.26,1193.13C2826.26,1193.13 2892.26,1127.13 2892.26,1037.13L2892.26,773.13L2811.26,773.13L2811.26,917.13C2811.26,956.13 2784.26,983.13 2748.26,983.13C2714.66,983.13 2694.26,962.13 2694.26,926.13L2694.26,773.13L2613.26,773.13L2613.26,938.13C2613.26,1013.13 2661.26,1061.13 2721.26,1061.13C2749.45,1061.13 2771.66,1049.13 2786.05,1037.13C2794.45,1029.93 2801.66,1022.13 2808.26,1013.13L2811.26,1013.13L2811.26,1037.13C2811.26,1085.13 2778.26,1118.13 2733.26,1118.13C2709.26,1118.13 2690.05,1109.13 2676.26,1100.13C2668.45,1094.73 2661.26,1088.73 2655.26,1082.13L2604.26,1133.13Z" style="fill:rgb(35,32,32);"/>
                <text x="2289.26px" y="1067.13px" style="font-family:'TTNormsPro-Bold', 'TT Norms Pro';font-weight:700;font-size:600px;fill:rgb(35,32,32);"><tspan x="2289.26px " y="1067.13px ">e</tspan></text>
            </g>
            <g transform="matrix(1,0,0,1,80.1924,-175.932)">
                <text x="1143.51px" y="1450.93px" style="font-family:'TTNormsPro-Bold', 'TT Norms Pro';font-weight:700;font-size:600px;fill:rgb(247,250,252);">J</text>
            </g>
        </g>
    </g>
</svg>
